<svg width="122" height="40" viewBox="0 0 122 40" fill="none" xmlns="http://www.w3.org/2000/svg">
<path d="M111.662 0.00013H10.2214C9.85159 0.00013 9.48626 0.00013 9.11747 0.00213C8.80877 0.00413 8.50252 0.00994 8.19085 0.01483C7.51375 0.0227318 6.83824 0.0818063 6.1702 0.19154C5.50309 0.303663 4.85689 0.515046 4.25343 0.81854C3.65072 1.1246 3.1 1.5223 2.62126 1.9972C2.14 2.47077 1.73884 3.01815 1.43319 3.61829C1.1267 4.21724 0.914181 4.85907 0.802969 5.52161C0.690699 6.18332 0.630286 6.85265 0.622271 7.52361C0.612914 7.83021 0.611925 8.13783 0.606995 8.44447V31.5587C0.611925 31.8692 0.612914 32.17 0.622271 32.4806C0.630288 33.1516 0.690702 33.8209 0.802969 34.4825C0.913874 35.1455 1.12641 35.7877 1.43319 36.3868C1.7387 36.985 2.13992 37.5302 2.62126 38.0011C3.09819 38.4781 3.64926 38.8761 4.25343 39.1798C4.85688 39.4841 5.50302 39.6968 6.1702 39.8106C6.83836 39.9195 7.51379 39.9786 8.19085 39.9874C8.50252 39.9942 8.80877 39.9981 9.11747 39.9981C9.48625 40.0001 9.85161 40.0001 10.2214 40.0001H111.662C112.025 40.0001 112.393 40.0001 112.755 39.9981C113.062 39.9981 113.378 39.9942 113.685 39.9874C114.361 39.9791 115.035 39.92 115.701 39.8106C116.371 39.696 117.019 39.4834 117.626 39.1798C118.229 38.8759 118.78 38.478 119.256 38.0011C119.736 37.5284 120.139 36.9836 120.448 36.3868C120.752 35.7872 120.963 35.1451 121.072 34.4825C121.185 33.8208 121.247 33.1516 121.259 32.4806C121.263 32.17 121.263 31.8692 121.263 31.5587C121.271 31.1954 121.271 30.8341 121.271 30.4649V9.53626C121.271 9.17005 121.271 8.80677 121.263 8.44447C121.263 8.13783 121.263 7.83021 121.259 7.52357C121.247 6.85255 121.185 6.18337 121.072 5.52157C120.963 4.85941 120.752 4.21763 120.448 3.61825C119.825 2.41533 118.838 1.43616 117.626 0.81845C117.019 0.515697 116.371 0.30437 115.701 0.19145C115.035 0.0812328 114.361 0.0221378 113.685 0.01469C113.378 0.00981 113.062 0.00395 112.755 0.002C112.393 0 112.025 0 111.662 0V0.00013Z" fill="#A6A6A6"/>
<path d="M9.12246 39.1251C8.81524 39.1251 8.51543 39.1212 8.21062 39.1144C7.57916 39.1063 6.94919 39.0517 6.32585 38.9513C5.74463 38.852 5.18158 38.6674 4.65527 38.4034C4.13379 38.1416 3.65816 37.7984 3.2466 37.3868C2.82908 36.9801 2.48147 36.5084 2.21756 35.9903C1.95074 35.4689 1.76608 34.91 1.67002 34.3331C1.56628 33.7132 1.51016 33.0864 1.50213 32.4581C1.49574 32.2472 1.48737 31.545 1.48737 31.545V8.44446C1.48737 8.44446 1.49628 7.75305 1.50218 7.54992C1.50987 6.9226 1.56567 6.29678 1.66909 5.67785C1.76533 5.09937 1.95013 4.53887 2.21709 4.01575C2.48004 3.49807 2.82571 3.02598 3.24072 2.6178C3.65526 2.20574 4.13241 1.86073 4.65478 1.59533C5.17987 1.33222 5.74186 1.14885 6.32191 1.05139C6.94729 0.949958 7.57945 0.895118 8.2131 0.887332L9.12296 0.875122H112.75L113.671 0.887822C114.299 0.895221 114.925 0.949572 115.545 1.05041C116.131 1.1491 116.699 1.33374 117.23 1.59826C118.276 2.13311 119.128 2.97929 119.665 4.01819C119.928 4.5377 120.11 5.09363 120.205 5.66711C120.309 6.29111 120.368 6.92186 120.38 7.55432C120.383 7.83752 120.383 8.14172 120.383 8.44446C120.391 8.81946 120.391 9.17639 120.391 9.53625V30.4649C120.391 30.8282 120.391 31.1827 120.383 31.5401C120.383 31.8653 120.383 32.1632 120.379 32.4698C120.367 33.091 120.31 33.7105 120.207 34.3233C120.113 34.9044 119.929 35.4676 119.662 35.9933C119.396 36.5057 119.051 36.9734 118.638 37.379C118.226 37.7928 117.75 38.1381 117.227 38.4015C116.697 38.6675 116.13 38.8529 115.545 38.9513C114.922 39.0523 114.292 39.1068 113.66 39.1144C113.365 39.1212 113.056 39.1251 112.755 39.1251L111.662 39.1271L9.12246 39.1251Z" fill="black"/>
<path d="M25.583 20.3008C25.5938 19.4662 25.8174 18.6478 26.2328 17.9218C26.6483 17.1959 27.2422 16.5859 27.9592 16.1488C27.5037 15.5036 26.9028 14.9727 26.2042 14.5981C25.5055 14.2236 24.7285 14.0157 23.9347 13.9911C22.2414 13.8148 20.5999 14.9959 19.737 14.9959C18.8574 14.9959 17.5289 14.0086 16.0984 14.0378C15.173 14.0674 14.2712 14.3343 13.4808 14.8123C12.6903 15.2904 12.0383 15.9633 11.5881 16.7656C9.63789 20.1141 11.0925 25.0351 12.9606 27.7417C13.8953 29.0671 14.9876 30.5475 16.4169 30.495C17.8156 30.4375 18.3379 29.6105 20.0262 29.6105C21.6988 29.6105 22.1889 30.495 23.6472 30.4616C25.148 30.4375 26.0936 29.1304 26.9955 27.7925C27.667 26.8481 28.1838 25.8044 28.5266 24.7C27.6547 24.3343 26.9106 23.7221 26.3871 22.9398C25.8637 22.1575 25.584 21.2397 25.583 20.3008Z" fill="white"/>
<path d="M22.8286 12.2111C23.6469 11.2369 24.05 9.98469 23.9524 8.72046C22.7022 8.85068 21.5474 9.44324 20.718 10.3801C20.3125 10.8377 20.0019 11.3702 19.804 11.9469C19.6062 12.5237 19.5248 13.1335 19.5647 13.7415C20.1901 13.7478 20.8087 13.6134 21.374 13.3483C21.9394 13.0833 22.4367 12.6944 22.8286 12.2111Z" fill="white"/>
<path d="M43.2631 27.1398H38.4901L37.3439 30.4962H35.3223L39.8431 18.0782H41.9435L46.4644 30.4962H44.4083L43.2631 27.1398ZM38.9844 25.591H42.7678L40.9027 20.1437H40.8505L38.9844 25.591Z" fill="white"/>
<path d="M56.2281 25.9699C56.2281 28.7834 54.7097 30.591 52.4182 30.591C51.8377 30.6211 51.2605 30.4885 50.7525 30.2084C50.2444 29.9283 49.8263 29.5119 49.5458 29.007H49.5024V33.4914H47.6285V21.4426H49.4424V22.9485H49.4768C49.7702 22.446 50.1955 22.0318 50.7073 21.7499C51.2192 21.4681 51.7986 21.3291 52.3837 21.3479C54.7008 21.3479 56.2281 23.1643 56.2281 25.9699ZM54.302 25.9699C54.302 24.1369 53.3468 22.9319 51.8894 22.9319C50.4576 22.9319 49.4946 24.1623 49.4946 25.9699C49.4946 27.7942 50.4576 29.0158 51.8894 29.0158C53.3468 29.0158 54.302 27.8196 54.302 25.9699Z" fill="white"/>
<path d="M66.2762 25.9699C66.2762 28.7834 64.7578 30.591 62.4663 30.591C61.8858 30.6211 61.3086 30.4885 60.8005 30.2084C60.2925 29.9283 59.8744 29.5119 59.5939 29.007H59.5505V33.4914H57.6766V21.4426H59.4904V22.9484H59.5249C59.8183 22.446 60.2435 22.0318 60.7554 21.7499C61.2673 21.4681 61.8466 21.3291 62.4318 21.3479C64.7489 21.3479 66.2762 23.1643 66.2762 25.9699ZM64.3501 25.9699C64.3501 24.1369 63.3949 22.9318 61.9375 22.9318C60.5057 22.9318 59.5426 24.1623 59.5426 25.9699C59.5426 27.7942 60.5057 29.0158 61.9375 29.0158C63.3949 29.0158 64.3501 27.8195 64.3501 25.9699H64.3501Z" fill="white"/>
<path d="M72.9172 27.0363C73.056 28.2678 74.2623 29.0763 75.9107 29.0763C77.4902 29.0763 78.6266 28.2677 78.6266 27.1574C78.6266 26.1935 77.9412 25.6164 76.3184 25.2208L74.6956 24.8331C72.3963 24.2824 71.3288 23.2159 71.3288 21.4855C71.3288 19.3429 73.2116 17.8712 75.8851 17.8712C78.5311 17.8712 80.3449 19.3429 80.406 21.4855H78.5143C78.4011 20.2462 77.3681 19.4982 75.8585 19.4982C74.3489 19.4982 73.316 20.255 73.316 21.3566C73.316 22.2345 73.9757 22.7511 75.5897 23.1466L76.9693 23.4825C79.5384 24.0851 80.6059 25.1085 80.6059 26.9249C80.6059 29.2481 78.7398 30.7032 75.7719 30.7032C72.9949 30.7032 71.12 29.2823 70.9989 27.0362L72.9172 27.0363Z" fill="white"/>
<path d="M84.6501 19.2999V21.4425H86.3862V22.9142H84.6501V27.9054C84.6501 28.6808 84.9977 29.0421 85.7609 29.0421C85.967 29.0386 86.1728 29.0242 86.3773 28.9991V30.462C86.0342 30.5256 85.6855 30.5544 85.3365 30.5479C83.4882 30.5479 82.7673 29.8595 82.7673 28.1036V22.9142H81.4399V21.4425H82.7673V19.2999H84.6501Z" fill="white"/>
<path d="M87.3916 25.9698C87.3916 23.1212 89.0833 21.3312 91.7214 21.3312C94.3684 21.3312 96.0522 23.1212 96.0522 25.9698C96.0522 28.8263 94.3772 30.6085 91.7214 30.6085C89.0666 30.6085 87.3916 28.8263 87.3916 25.9698ZM94.1429 25.9698C94.1429 24.0157 93.2399 22.8624 91.7214 22.8624C90.203 22.8624 89.301 24.0245 89.301 25.9698C89.301 27.9318 90.203 29.0763 91.7214 29.0763C93.2399 29.0763 94.1428 27.9318 94.1428 25.9698H94.1429Z" fill="white"/>
<path d="M97.5973 21.4425H99.3846V22.9835H99.4279C99.5489 22.5022 99.8332 22.0769 100.233 21.779C100.633 21.4811 101.124 21.3288 101.624 21.3478C101.84 21.347 102.055 21.3703 102.266 21.4171V23.1554C101.993 23.0728 101.709 23.0348 101.424 23.0431C101.152 23.0321 100.88 23.0797 100.628 23.1826C100.376 23.2855 100.15 23.4412 99.9644 23.6391C99.7789 23.837 99.6388 24.0724 99.5536 24.3291C99.4685 24.5857 99.4404 24.8576 99.4712 25.1261V30.4962H97.5973L97.5973 21.4425Z" fill="white"/>
<path d="M110.906 27.837C110.654 29.4806 109.04 30.6085 106.975 30.6085C104.319 30.6085 102.671 28.8439 102.671 26.0128C102.671 23.173 104.328 21.3312 106.896 21.3312C109.422 21.3312 111.01 23.0519 111.01 25.797V26.4337H104.562V26.546C104.532 26.8792 104.574 27.2149 104.686 27.5307C104.797 27.8466 104.974 28.1353 105.207 28.3779C105.439 28.6204 105.72 28.8112 106.033 28.9375C106.345 29.0638 106.681 29.1228 107.018 29.1105C107.461 29.1516 107.905 29.0499 108.285 28.8205C108.665 28.591 108.96 28.2461 109.126 27.837L110.906 27.837ZM104.571 25.1349H109.135C109.152 24.8353 109.106 24.5355 109.001 24.2543C108.895 23.9731 108.732 23.7165 108.522 23.5008C108.312 23.285 108.059 23.1147 107.779 23.0004C107.499 22.8862 107.198 22.8306 106.896 22.837C106.591 22.8352 106.288 22.8934 106.006 23.0081C105.724 23.1229 105.467 23.2919 105.251 23.5056C105.035 23.7192 104.863 23.9732 104.747 24.2528C104.63 24.5325 104.57 24.8323 104.571 25.1349V25.1349Z" fill="white"/>
<path d="M38.7493 8.73114C39.1421 8.70318 39.5364 8.76204 39.9035 8.90347C40.2707 9.0449 40.6016 9.26538 40.8724 9.54901C41.1433 9.83263 41.3472 10.1723 41.4697 10.5436C41.5921 10.9149 41.6299 11.3085 41.5804 11.696C41.5804 13.6022 40.5415 14.698 38.7493 14.698H36.576V8.73114H38.7493ZM37.5105 13.8541H38.6449C38.9256 13.8708 39.2066 13.8251 39.4673 13.7205C39.728 13.6159 39.9619 13.455 40.1519 13.2494C40.342 13.0438 40.4834 12.7988 40.566 12.5322C40.6485 12.2656 40.6701 11.9841 40.6291 11.7081C40.6671 11.4333 40.6434 11.1535 40.5596 10.8889C40.4758 10.6242 40.3339 10.3812 40.1443 10.1773C39.9547 9.97334 39.7219 9.81353 39.4627 9.70929C39.2034 9.60506 38.9242 9.55897 38.6449 9.57435H37.5105V13.8541Z" fill="white"/>
<path d="M42.636 12.4445C42.6074 12.1486 42.6416 11.85 42.7362 11.568C42.8308 11.2859 42.9838 11.0266 43.1855 10.8066C43.3871 10.5866 43.6328 10.4108 43.9069 10.2906C44.1811 10.1703 44.4775 10.1082 44.7773 10.1082C45.077 10.1082 45.3735 10.1703 45.6476 10.2906C45.9217 10.4108 46.1675 10.5866 46.3691 10.8066C46.5707 11.0266 46.7237 11.2859 46.8183 11.568C46.913 11.85 46.9471 12.1486 46.9185 12.4445C46.9476 12.7408 46.9139 13.0397 46.8195 13.3223C46.7252 13.6048 46.5722 13.8646 46.3706 14.085C46.1689 14.3054 45.923 14.4816 45.6486 14.6021C45.3742 14.7226 45.0774 14.7849 44.7773 14.7849C44.4772 14.7849 44.1804 14.7226 43.906 14.6021C43.6316 14.4816 43.3856 14.3054 43.184 14.085C42.9823 13.8646 42.8294 13.6048 42.735 13.3223C42.6406 13.0397 42.6069 12.7408 42.636 12.4445ZM45.9968 12.4445C45.9968 11.4685 45.5547 10.8977 44.7787 10.8977C43.9998 10.8977 43.5617 11.4685 43.5617 12.4445C43.5617 13.4284 43.9999 13.9948 44.7787 13.9948C45.5547 13.9948 45.9968 13.4245 45.9968 12.4445H45.9968Z" fill="white"/>
<path d="M52.6112 14.6979H51.6816L50.7432 11.3815H50.6723L49.7378 14.6979H48.8171L47.5655 10.1949H48.4744L49.2878 13.6309H49.3547L50.2883 10.1949H51.1479L52.0814 13.6309H52.1523L52.9618 10.1949H53.8579L52.6112 14.6979Z" fill="white"/>
<path d="M54.9105 10.195H55.7731V10.9103H55.8401C55.9537 10.6534 56.1453 10.438 56.3882 10.2942C56.6311 10.1504 56.9131 10.0853 57.1951 10.1081C57.416 10.0916 57.6379 10.1246 57.8442 10.2047C58.0505 10.2848 58.236 10.4099 58.3869 10.5708C58.5378 10.7316 58.6503 10.9241 58.7161 11.1339C58.7818 11.3437 58.7991 11.5655 58.7667 11.7829V14.6979H57.8706V12.006C57.8706 11.2824 57.5535 10.9225 56.8908 10.9225C56.7408 10.9156 56.5911 10.9409 56.4519 10.9968C56.3126 11.0526 56.1873 11.1376 56.0843 11.246C55.9813 11.3544 55.9032 11.4836 55.8552 11.6247C55.8073 11.7658 55.7907 11.9156 55.8066 12.0636V14.6979H54.9105L54.9105 10.195Z" fill="white"/>
<path d="M60.1946 8.43713H61.0907V14.6979H60.1946V8.43713Z" fill="white"/>
<path d="M62.3363 12.4445C62.3078 12.1486 62.342 11.85 62.4366 11.5679C62.5313 11.2858 62.6843 11.0265 62.8859 10.8065C63.0876 10.5865 63.3333 10.4107 63.6075 10.2904C63.8816 10.1702 64.1781 10.108 64.4779 10.108C64.7776 10.108 65.0741 10.1702 65.3482 10.2904C65.6224 10.4107 65.8681 10.5865 66.0698 10.8065C66.2714 11.0265 66.4245 11.2858 66.5191 11.5679C66.6138 11.85 66.6479 12.1486 66.6194 12.4445C66.6484 12.7407 66.6147 13.0397 66.5203 13.3222C66.4259 13.6048 66.2729 13.8646 66.0712 14.085C65.8695 14.3054 65.6236 14.4815 65.3492 14.602C65.0748 14.7226 64.778 14.7848 64.4779 14.7848C64.1777 14.7848 63.8809 14.7226 63.6065 14.602C63.3321 14.4815 63.0862 14.3054 62.8845 14.085C62.6828 13.8646 62.5299 13.6048 62.4355 13.3222C62.341 13.0397 62.3073 12.7407 62.3363 12.4445ZM65.6972 12.4445C65.6972 11.4684 65.255 10.8976 64.4791 10.8976C63.7002 10.8976 63.262 11.4684 63.262 12.4445C63.262 13.4284 63.7002 13.9948 64.4791 13.9948C65.2551 13.9948 65.6972 13.4245 65.6972 12.4445H65.6972Z" fill="white"/>
<path d="M67.5627 13.4244C67.5627 12.6139 68.1713 12.1466 69.2515 12.0802L70.4815 12.0099V11.6212C70.4815 11.1456 70.1644 10.8771 69.5519 10.8771C69.0517 10.8771 68.705 11.0592 68.6056 11.3776H67.738C67.8296 10.6041 68.5632 10.108 69.5932 10.108C70.7316 10.108 71.3736 10.67 71.3736 11.6212V14.6979H70.511V14.0651H70.4401C70.2962 14.2921 70.0941 14.4771 69.8545 14.6013C69.6149 14.7255 69.3463 14.7844 69.0763 14.7721C68.8857 14.7917 68.693 14.7716 68.5107 14.7129C68.3285 14.6542 68.1606 14.5582 68.018 14.4313C67.8754 14.3043 67.7612 14.1491 67.6828 13.9757C67.6044 13.8023 67.5635 13.6145 67.5627 13.4244ZM70.4815 13.0397V12.6632L69.3727 12.7335C68.7474 12.775 68.4638 12.986 68.4638 13.3829C68.4638 13.7882 68.8183 14.024 69.3057 14.024C69.4486 14.0384 69.5928 14.0241 69.73 13.982C69.8671 13.9399 69.9943 13.8709 70.104 13.779C70.2137 13.6872 70.3037 13.5744 70.3685 13.4474C70.4333 13.3204 70.4718 13.1817 70.4815 13.0397Z" fill="white"/>
<path d="M72.5514 12.4445C72.5514 11.0216 73.289 10.1203 74.4362 10.1203C74.7199 10.1073 75.0015 10.1747 75.2481 10.3146C75.4947 10.4545 75.696 10.6611 75.8286 10.9103H75.8955V8.43713H76.7916V14.6979H75.9329V13.9864H75.862C75.7192 14.2339 75.5109 14.438 75.2596 14.5765C75.0082 14.7149 74.7235 14.7826 74.4362 14.7721C73.2811 14.7721 72.5514 13.8707 72.5514 12.4445ZM73.4771 12.4445C73.4771 13.3996 73.931 13.9743 74.6902 13.9743C75.4455 13.9743 75.9123 13.3913 75.9123 12.4484C75.9123 11.5099 75.4406 10.9186 74.6902 10.9186C73.9359 10.9186 73.477 11.4972 73.477 12.4445H73.4771Z" fill="white"/>
<path d="M80.4991 12.4445C80.4706 12.1486 80.5047 11.85 80.5994 11.568C80.694 11.2859 80.847 11.0266 81.0486 10.8066C81.2502 10.5866 81.496 10.4108 81.7701 10.2906C82.0442 10.1703 82.3407 10.1082 82.6404 10.1082C82.9402 10.1082 83.2366 10.1703 83.5107 10.2906C83.7849 10.4108 84.0306 10.5866 84.2322 10.8066C84.4338 11.0266 84.5869 11.2859 84.6815 11.568C84.7761 11.85 84.8103 12.1486 84.7817 12.4445C84.8108 12.7408 84.7771 13.0397 84.6827 13.3223C84.5883 13.6048 84.4354 13.8646 84.2337 14.085C84.0321 14.3054 83.7861 14.4816 83.5117 14.6021C83.2373 14.7226 82.9405 14.7849 82.6404 14.7849C82.3403 14.7849 82.0435 14.7226 81.7691 14.6021C81.4947 14.4816 81.2488 14.3054 81.0471 14.085C80.8455 13.8646 80.6925 13.6048 80.5982 13.3223C80.5038 13.0397 80.4701 12.7408 80.4991 12.4445ZM83.86 12.4445C83.86 11.4685 83.4179 10.8977 82.6419 10.8977C81.863 10.8977 81.4248 11.4685 81.4248 12.4445C81.4248 13.4284 81.863 13.9948 82.6419 13.9948C83.4179 13.9948 83.86 13.4245 83.86 12.4445Z" fill="white"/>
<path d="M85.984 10.195H86.8466V10.9103H86.9136C87.0272 10.6534 87.2188 10.438 87.4617 10.2942C87.7045 10.1504 87.9866 10.0853 88.2686 10.1081C88.4895 10.0916 88.7113 10.1246 88.9176 10.2047C89.124 10.2848 89.3094 10.4099 89.4604 10.5708C89.6113 10.7316 89.7238 10.9241 89.7896 11.1339C89.8553 11.3437 89.8726 11.5655 89.8402 11.7829V14.6979H88.9441V12.006C88.9441 11.2824 88.627 10.9225 87.9643 10.9225C87.8143 10.9156 87.6645 10.9409 87.5253 10.9968C87.3861 11.0526 87.2607 11.1376 87.1578 11.246C87.0548 11.3544 86.9767 11.4836 86.9287 11.6247C86.8808 11.7658 86.8642 11.9156 86.8801 12.0636V14.6979H85.984V10.195Z" fill="white"/>
<path d="M94.9036 9.07385V10.2155H95.8873V10.964H94.9036V13.2794C94.9036 13.7511 95.0996 13.9576 95.5456 13.9576C95.6598 13.9573 95.7739 13.9504 95.8873 13.9371V14.6774C95.7264 14.7059 95.5634 14.7211 95.3999 14.7228C94.4034 14.7228 94.0065 14.3751 94.0065 13.507V10.964H93.2857V10.2154H94.0065V9.07385H94.9036Z" fill="white"/>
<path d="M97.1114 8.43713H97.9996V10.9186H98.0705C98.1896 10.6593 98.3865 10.4427 98.6342 10.2983C98.882 10.154 99.1686 10.0889 99.455 10.1119C99.6748 10.1001 99.8945 10.1365 100.098 10.2185C100.302 10.3006 100.486 10.4262 100.635 10.5866C100.784 10.7469 100.896 10.938 100.962 11.1461C101.029 11.3542 101.048 11.5743 101.019 11.7907V14.6979H100.122V12.0099C100.122 11.2906 99.7839 10.9264 99.1508 10.9264C98.9968 10.9139 98.8419 10.9349 98.6969 10.9879C98.5519 11.041 98.4204 11.1248 98.3115 11.2335C98.2026 11.3423 98.119 11.4733 98.0665 11.6174C98.014 11.7616 97.9938 11.9153 98.0075 12.068V14.6979H97.1114L97.1114 8.43713Z" fill="white"/>
<path d="M106.244 13.482C106.122 13.8935 105.858 14.2495 105.498 14.4877C105.139 14.7258 104.706 14.831 104.276 14.7847C103.977 14.7926 103.68 14.7357 103.405 14.6182C103.13 14.5007 102.884 14.3253 102.685 14.1041C102.485 13.883 102.337 13.6214 102.249 13.3376C102.162 13.0538 102.138 12.7545 102.179 12.4605C102.139 12.1656 102.163 11.8657 102.251 11.581C102.338 11.2964 102.486 11.0336 102.684 10.8105C102.883 10.5874 103.127 10.4093 103.401 10.2881C103.675 10.1669 103.972 10.1054 104.272 10.108C105.536 10.108 106.298 10.964 106.298 12.378V12.6881H103.091V12.7379C103.077 12.9031 103.098 13.0695 103.153 13.2262C103.208 13.383 103.295 13.5267 103.408 13.6481C103.522 13.7696 103.66 13.8661 103.814 13.9315C103.968 13.9969 104.134 14.0297 104.301 14.0279C104.515 14.0534 104.732 14.0151 104.925 13.9179C105.117 13.8207 105.276 13.669 105.381 13.482L106.244 13.482ZM103.091 12.0308H105.385C105.396 11.8797 105.375 11.7279 105.324 11.5852C105.273 11.4425 105.192 11.312 105.087 11.2021C104.981 11.0923 104.854 11.0055 104.713 10.9473C104.572 10.8891 104.42 10.8609 104.267 10.8643C104.112 10.8624 103.958 10.8913 103.815 10.9492C103.671 11.0072 103.541 11.093 103.431 11.2017C103.322 11.3104 103.235 11.4398 103.177 11.5822C103.119 11.7246 103.089 11.8771 103.091 12.0308H103.091Z" fill="white"/>
</svg>
