<svg width="40" height="72" viewBox="0 0 40 72" fill="none" xmlns="http://www.w3.org/2000/svg">
<path fill-rule="evenodd" clip-rule="evenodd" d="M29.9474 30.8588H11V42.6482C11 44.8574 12.7909 46.6482 15 46.6482H25.9474C28.1565 46.6482 29.9474 44.8574 29.9474 42.6482V30.8588ZM15 45.1482C13.6193 45.1482 12.5 44.0289 12.5 42.6482V32.3588H28.4474V42.6482C28.4474 44.0289 27.3281 45.1482 25.9474 45.1482H15Z" fill="#262626"/>
<path d="M17.0132 36.06V29.8681C17.0132 27.9569 18.5625 26.4075 20.4737 26.4075C22.3849 26.4075 23.9342 27.9569 23.9342 29.8681V36.06C23.9342 36.4742 24.27 36.81 24.6842 36.81C25.0984 36.81 25.4342 36.4742 25.4342 36.06V29.8681C25.4342 27.1284 23.2133 24.9075 20.4737 24.9075C17.7341 24.9075 15.5132 27.1284 15.5132 29.8681V36.06C15.5132 36.4742 15.8489 36.81 16.2632 36.81C16.6774 36.81 17.0132 36.4742 17.0132 36.06Z" fill="#262626"/>
</svg>
