<svg width="181" height="43" viewBox="0 0 181 43" fill="none" xmlns="http://www.w3.org/2000/svg">
<g clip-path="url(#clip0)">
<g filter="url(#filter0_d)">
<path fill-rule="evenodd" clip-rule="evenodd" d="M0.946167 3.76166C0.946167 2.10466 2.3383 0.761658 4.05592 0.761658H167.836C169.554 0.761658 170.946 2.10466 170.946 3.76166V12.8769L180.684 22.6152L170.946 32.3535V39.7617C170.946 41.4187 169.554 42.7617 167.836 42.7617H4.05592C2.3383 42.7617 0.946167 41.4187 0.946167 39.7617V3.76166Z" fill="#2B3439"/>
</g>
<path d="M22.8711 21.0674C22.7568 22.0449 22.395 22.8003 21.7856 23.3335C21.1805 23.8625 20.3743 24.127 19.3672 24.127C18.2754 24.127 17.3994 23.7355 16.7393 22.9526C16.0833 22.1698 15.7554 21.1224 15.7554 19.8105V18.9219C15.7554 18.0628 15.9077 17.3075 16.2124 16.6558C16.5213 16.0041 16.9572 15.5047 17.52 15.1577C18.0828 14.8065 18.7345 14.6309 19.4751 14.6309C20.4569 14.6309 21.244 14.9059 21.8364 15.4561C22.4289 16.002 22.7738 16.7594 22.8711 17.7285H21.646C21.5402 16.9922 21.3096 16.459 20.9541 16.1289C20.6029 15.7988 20.1099 15.6338 19.4751 15.6338C18.6965 15.6338 18.085 15.9215 17.6406 16.4971C17.2005 17.0726 16.9805 17.8914 16.9805 18.9536V19.8486C16.9805 20.8516 17.1899 21.6493 17.6089 22.2417C18.0278 22.8341 18.6139 23.1304 19.3672 23.1304C20.0443 23.1304 20.5627 22.978 20.9224 22.6733C21.2863 22.3644 21.5275 21.8291 21.646 21.0674H22.8711ZM29.9741 24H28.7998V18.103H25.6387V24H24.458V17.1318H29.9741V24ZM36.0996 24C36.0319 23.8646 35.9769 23.6234 35.9346 23.2764C35.3887 23.8434 34.737 24.127 33.9795 24.127C33.3024 24.127 32.7459 23.9365 32.3101 23.5557C31.8784 23.1706 31.6626 22.6839 31.6626 22.0957C31.6626 21.3805 31.9334 20.8262 32.4751 20.4326C33.021 20.0348 33.7869 19.8359 34.7729 19.8359H35.9155V19.2964C35.9155 18.8859 35.7928 18.5601 35.5474 18.3188C35.3019 18.0734 34.9401 17.9507 34.4619 17.9507C34.043 17.9507 33.6917 18.0565 33.4082 18.2681C33.1247 18.4797 32.9829 18.7357 32.9829 19.0361H31.8022C31.8022 18.6934 31.9229 18.3633 32.1641 18.0459C32.4095 17.7243 32.7396 17.4704 33.1543 17.2842C33.5732 17.098 34.0324 17.0049 34.5317 17.0049C35.3231 17.0049 35.943 17.2038 36.3916 17.6016C36.8402 17.9951 37.0729 18.5389 37.0898 19.2329V22.394C37.0898 23.0246 37.1702 23.526 37.3311 23.8984V24H36.0996ZM34.1509 23.105C34.519 23.105 34.8682 23.0098 35.1982 22.8193C35.5283 22.6289 35.7674 22.3813 35.9155 22.0767V20.6675H34.9951C33.5563 20.6675 32.8369 21.0885 32.8369 21.9307C32.8369 22.2988 32.9596 22.5866 33.2051 22.7939C33.4505 23.0013 33.7658 23.105 34.1509 23.105ZM41.6855 23.1685C42.1045 23.1685 42.4705 23.0415 42.7837 22.7876C43.0968 22.5337 43.2703 22.2163 43.3042 21.8354H44.415C44.3939 22.229 44.2585 22.6035 44.0088 22.959C43.7591 23.3145 43.4248 23.598 43.0059 23.8096C42.5911 24.0212 42.151 24.127 41.6855 24.127C40.7503 24.127 40.0055 23.8159 39.4512 23.1938C38.901 22.5675 38.626 21.7127 38.626 20.6294V20.4326C38.626 19.764 38.7487 19.1694 38.9941 18.6489C39.2396 18.1284 39.5908 17.7243 40.0479 17.4365C40.5091 17.1488 41.0529 17.0049 41.6792 17.0049C42.4494 17.0049 43.0884 17.2355 43.5962 17.6968C44.1082 18.158 44.3812 18.7568 44.415 19.4932H43.3042C43.2703 19.0488 43.1011 18.6849 42.7964 18.4014C42.4959 18.1136 42.1235 17.9697 41.6792 17.9697C41.0825 17.9697 40.6191 18.1855 40.2891 18.6172C39.9632 19.0446 39.8003 19.6646 39.8003 20.4771V20.6992C39.8003 21.4906 39.9632 22.0999 40.2891 22.5273C40.6149 22.9548 41.0804 23.1685 41.6855 23.1685ZM50.1787 17.1318H51.353V24H50.1787V18.9917L47.0112 24H45.8369V17.1318H47.0112V22.1465L50.1787 17.1318ZM56.2534 17.5254C57.1167 17.5254 57.8065 17.8153 58.3228 18.395C58.8433 18.9705 59.1035 19.7301 59.1035 20.6738V20.7817C59.1035 21.4292 58.9787 22.009 58.729 22.521C58.4793 23.0288 58.1196 23.4245 57.6499 23.708C57.1844 23.9873 56.647 24.127 56.0376 24.127C55.1151 24.127 54.3724 23.8201 53.8096 23.2065C53.2467 22.5887 52.9653 21.7614 52.9653 20.7246V20.1533C52.9653 18.7103 53.2319 17.5635 53.7651 16.7129C54.3026 15.8623 55.0939 15.3439 56.1392 15.1577C56.7316 15.0519 57.1315 14.9229 57.3389 14.7705C57.5462 14.6182 57.6499 14.4087 57.6499 14.1421H58.6147C58.6147 14.6711 58.4941 15.0837 58.2529 15.3799C58.016 15.6761 57.6351 15.8856 57.1104 16.0083L56.2344 16.2051C55.5361 16.3701 55.0114 16.6494 54.6602 17.043C54.3132 17.4323 54.0868 17.9528 53.981 18.6045C54.603 17.8851 55.3605 17.5254 56.2534 17.5254ZM56.0249 18.4902C55.4494 18.4902 54.9924 18.6849 54.6538 19.0742C54.3153 19.4593 54.146 19.9946 54.146 20.6802V20.7817C54.146 21.5181 54.3153 22.1021 54.6538 22.5337C54.9966 22.9611 55.4578 23.1748 56.0376 23.1748C56.6216 23.1748 57.0828 22.959 57.4214 22.5273C57.7599 22.0957 57.9292 21.4652 57.9292 20.6357C57.9292 19.9883 57.7578 19.4699 57.415 19.0806C57.0765 18.687 56.6131 18.4902 56.0249 18.4902ZM60.1128 20.5024C60.1128 19.8296 60.244 19.2244 60.5063 18.687C60.7729 18.1496 61.1411 17.7349 61.6108 17.4429C62.0848 17.1509 62.6243 17.0049 63.2295 17.0049C64.1647 17.0049 64.9201 17.3286 65.4956 17.9761C66.0754 18.6235 66.3652 19.4847 66.3652 20.5596V20.6421C66.3652 21.3107 66.2362 21.9116 65.978 22.4448C65.7241 22.9738 65.3581 23.3864 64.8799 23.6826C64.4059 23.9788 63.86 24.127 63.2422 24.127C62.3112 24.127 61.5558 23.8032 60.9761 23.1558C60.4006 22.5083 60.1128 21.6514 60.1128 20.585V20.5024ZM61.2935 20.6421C61.2935 21.4038 61.4691 22.0153 61.8203 22.4766C62.1758 22.9378 62.6497 23.1685 63.2422 23.1685C63.8389 23.1685 64.3128 22.9357 64.6641 22.4702C65.0153 22.0005 65.1909 21.3446 65.1909 20.5024C65.1909 19.7492 65.0111 19.1398 64.6514 18.6743C64.2959 18.2046 63.8219 17.9697 63.2295 17.9697C62.6497 17.9697 62.1821 18.2004 61.8267 18.6616C61.4712 19.1229 61.2935 19.783 61.2935 20.6421ZM74.8394 19.0107C74.8394 18.6891 74.7166 18.4352 74.4712 18.249C74.2257 18.0586 73.8893 17.9634 73.4619 17.9634C73.0472 17.9634 72.7002 18.0713 72.4209 18.2871C72.1458 18.5029 72.0083 18.7568 72.0083 19.0488H70.8403C70.8403 18.4521 71.09 17.9634 71.5894 17.5825C72.0887 17.2017 72.7129 17.0112 73.4619 17.0112C74.266 17.0112 74.8923 17.1847 75.3408 17.5317C75.7894 17.8745 76.0137 18.3654 76.0137 19.0044C76.0137 19.3133 75.9206 19.5968 75.7344 19.855C75.5482 20.1131 75.2837 20.3184 74.9409 20.4707C75.7407 20.7415 76.1406 21.2747 76.1406 22.0703C76.1406 22.7008 75.8973 23.2002 75.4106 23.5684C74.924 23.9365 74.2744 24.1206 73.4619 24.1206C72.6706 24.1206 72.0168 23.9281 71.5005 23.543C70.9884 23.1536 70.7324 22.6289 70.7324 21.9688H71.9004C71.9004 22.3031 72.0485 22.5908 72.3447 22.832C72.6452 23.069 73.0176 23.1875 73.4619 23.1875C73.9105 23.1875 74.2723 23.0838 74.5474 22.8765C74.8224 22.6691 74.96 22.4004 74.96 22.0703C74.96 21.6852 74.8436 21.4102 74.6108 21.2451C74.3823 21.0758 74.0247 20.9912 73.5381 20.9912H72.3638V20.001H73.6396C74.4395 19.9798 74.8394 19.6497 74.8394 19.0107ZM81.9043 24C81.8366 23.8646 81.7816 23.6234 81.7393 23.2764C81.1934 23.8434 80.5417 24.127 79.7842 24.127C79.1071 24.127 78.5506 23.9365 78.1147 23.5557C77.6831 23.1706 77.4673 22.6839 77.4673 22.0957C77.4673 21.3805 77.7381 20.8262 78.2798 20.4326C78.8257 20.0348 79.5916 19.8359 80.5776 19.8359H81.7202V19.2964C81.7202 18.8859 81.5975 18.5601 81.3521 18.3188C81.1066 18.0734 80.7448 17.9507 80.2666 17.9507C79.8477 17.9507 79.4964 18.0565 79.2129 18.2681C78.9294 18.4797 78.7876 18.7357 78.7876 19.0361H77.6069C77.6069 18.6934 77.7275 18.3633 77.9688 18.0459C78.2142 17.7243 78.5443 17.4704 78.959 17.2842C79.3779 17.098 79.8371 17.0049 80.3364 17.0049C81.1278 17.0049 81.7477 17.2038 82.1963 17.6016C82.6449 17.9951 82.8776 18.5389 82.8945 19.2329V22.394C82.8945 23.0246 82.9749 23.526 83.1357 23.8984V24H81.9043ZM79.9556 23.105C80.3237 23.105 80.6729 23.0098 81.0029 22.8193C81.333 22.6289 81.5721 22.3813 81.7202 22.0767V20.6675H80.7998C79.361 20.6675 78.6416 21.0885 78.6416 21.9307C78.6416 22.2988 78.7643 22.5866 79.0098 22.7939C79.2552 23.0013 79.5705 23.105 79.9556 23.105ZM88.0679 24V17.1318H90.7466C91.6606 17.1318 92.361 17.2926 92.8477 17.6143C93.3385 17.9316 93.584 18.3993 93.584 19.0171C93.584 19.3345 93.4888 19.6222 93.2983 19.8804C93.1079 20.1343 92.8265 20.3289 92.4541 20.4644C92.8688 20.5617 93.201 20.7521 93.4507 21.0356C93.7046 21.3192 93.8315 21.6577 93.8315 22.0513C93.8315 22.6818 93.5988 23.1642 93.1333 23.4985C92.672 23.8328 92.0182 24 91.1719 24H88.0679ZM89.2422 20.9849V23.0542H91.1846C91.6755 23.0542 92.0415 22.9632 92.2827 22.7812C92.5282 22.5993 92.6509 22.3433 92.6509 22.0132C92.6509 21.3276 92.1473 20.9849 91.1401 20.9849H89.2422ZM89.2422 20.0454H90.7593C91.8595 20.0454 92.4097 19.7238 92.4097 19.0806C92.4097 18.4373 91.8892 18.1051 90.8481 18.084H89.2422V20.0454ZM99.627 24C99.5592 23.8646 99.5042 23.6234 99.4619 23.2764C98.916 23.8434 98.2643 24.127 97.5068 24.127C96.8298 24.127 96.2733 23.9365 95.8374 23.5557C95.4058 23.1706 95.1899 22.6839 95.1899 22.0957C95.1899 21.3805 95.4608 20.8262 96.0024 20.4326C96.5483 20.0348 97.3143 19.8359 98.3003 19.8359H99.4429V19.2964C99.4429 18.8859 99.3201 18.5601 99.0747 18.3188C98.8293 18.0734 98.4674 17.9507 97.9893 17.9507C97.5703 17.9507 97.2191 18.0565 96.9355 18.2681C96.652 18.4797 96.5103 18.7357 96.5103 19.0361H95.3296C95.3296 18.6934 95.4502 18.3633 95.6914 18.0459C95.9368 17.7243 96.2669 17.4704 96.6816 17.2842C97.1006 17.098 97.5597 17.0049 98.0591 17.0049C98.8504 17.0049 99.4704 17.2038 99.9189 17.6016C100.368 17.9951 100.6 18.5389 100.617 19.2329V22.394C100.617 23.0246 100.698 23.526 100.858 23.8984V24H99.627ZM97.6782 23.105C98.0464 23.105 98.3955 23.0098 98.7256 22.8193C99.0557 22.6289 99.2948 22.3813 99.4429 22.0767V20.6675H98.5225C97.0837 20.6675 96.3643 21.0885 96.3643 21.9307C96.3643 22.2988 96.487 22.5866 96.7324 22.7939C96.9779 23.0013 97.2931 23.105 97.6782 23.105ZM103.74 17.1318V23.0415H106.254V17.1318H107.428V23.0415H109.936V17.1318H111.116V24H102.56V17.1318H103.74ZM115.883 20.5024C115.883 19.8296 116.014 19.2244 116.277 18.687C116.543 18.1496 116.912 17.7349 117.381 17.4429C117.855 17.1509 118.395 17.0049 119 17.0049C119.935 17.0049 120.691 17.3286 121.266 17.9761C121.846 18.6235 122.136 19.4847 122.136 20.5596V20.6421C122.136 21.3107 122.007 21.9116 121.749 22.4448C121.495 22.9738 121.129 23.3864 120.65 23.6826C120.176 23.9788 119.631 24.127 119.013 24.127C118.082 24.127 117.326 23.8032 116.747 23.1558C116.171 22.5083 115.883 21.6514 115.883 20.585V20.5024ZM117.064 20.6421C117.064 21.4038 117.24 22.0153 117.591 22.4766C117.946 22.9378 118.42 23.1685 119.013 23.1685C119.609 23.1685 120.083 22.9357 120.435 22.4702C120.786 22.0005 120.961 21.3446 120.961 20.5024C120.961 19.7492 120.782 19.1398 120.422 18.6743C120.066 18.2046 119.592 17.9697 119 17.9697C118.42 17.9697 117.953 18.2004 117.597 18.6616C117.242 19.1229 117.064 19.783 117.064 20.6421ZM128.572 18.084H126.268V24H125.094V18.084H122.834V17.1318H128.572V18.084ZM133.492 19.0107C133.492 18.6891 133.369 18.4352 133.124 18.249C132.878 18.0586 132.542 17.9634 132.114 17.9634C131.7 17.9634 131.353 18.0713 131.073 18.2871C130.798 18.5029 130.661 18.7568 130.661 19.0488H129.493C129.493 18.4521 129.742 17.9634 130.242 17.5825C130.741 17.2017 131.365 17.0112 132.114 17.0112C132.918 17.0112 133.545 17.1847 133.993 17.5317C134.442 17.8745 134.666 18.3654 134.666 19.0044C134.666 19.3133 134.573 19.5968 134.387 19.855C134.201 20.1131 133.936 20.3184 133.593 20.4707C134.393 20.7415 134.793 21.2747 134.793 22.0703C134.793 22.7008 134.55 23.2002 134.063 23.5684C133.576 23.9365 132.927 24.1206 132.114 24.1206C131.323 24.1206 130.669 23.9281 130.153 23.543C129.641 23.1536 129.385 22.6289 129.385 21.9688H130.553C130.553 22.3031 130.701 22.5908 130.997 22.832C131.298 23.069 131.67 23.1875 132.114 23.1875C132.563 23.1875 132.925 23.0838 133.2 22.8765C133.475 22.6691 133.612 22.4004 133.612 22.0703C133.612 21.6852 133.496 21.4102 133.263 21.2451C133.035 21.0758 132.677 20.9912 132.19 20.9912H131.016V20.001H132.292C133.092 19.9798 133.492 19.6497 133.492 19.0107ZM137.599 19.4995H139.382C140.161 19.508 140.777 19.7111 141.229 20.1089C141.682 20.5067 141.909 21.0462 141.909 21.7275C141.909 22.4131 141.676 22.9632 141.21 23.3779C140.745 23.7926 140.119 24 139.332 24H136.424V17.1318H137.599V19.4995ZM144.359 24H143.178V17.1318H144.359V24ZM137.599 20.458V23.0415H139.344C139.784 23.0415 140.125 22.9294 140.366 22.7051C140.607 22.4766 140.728 22.1655 140.728 21.772C140.728 21.3911 140.61 21.0801 140.373 20.8389C140.14 20.5934 139.812 20.4665 139.389 20.458H137.599ZM146.517 24V17.1318H149.196C150.11 17.1318 150.81 17.2926 151.297 17.6143C151.788 17.9316 152.033 18.3993 152.033 19.0171C152.033 19.3345 151.938 19.6222 151.748 19.8804C151.557 20.1343 151.276 20.3289 150.903 20.4644C151.318 20.5617 151.65 20.7521 151.9 21.0356C152.154 21.3192 152.281 21.6577 152.281 22.0513C152.281 22.6818 152.048 23.1642 151.583 23.4985C151.121 23.8328 150.467 24 149.621 24H146.517ZM147.691 20.9849V23.0542H149.634C150.125 23.0542 150.491 22.9632 150.732 22.7812C150.977 22.5993 151.1 22.3433 151.1 22.0132C151.1 21.3276 150.597 20.9849 149.589 20.9849H147.691ZM147.691 20.0454H149.208C150.309 20.0454 150.859 19.7238 150.859 19.0806C150.859 18.4373 150.338 18.1051 149.297 18.084H147.691V20.0454ZM155.15 21.3911H154.09L154.007 14.7578H155.239L155.15 21.3911ZM153.963 23.4097C153.963 23.2192 154.02 23.0605 154.134 22.9336C154.253 22.8024 154.426 22.7368 154.655 22.7368C154.883 22.7368 155.057 22.8024 155.175 22.9336C155.294 23.0605 155.353 23.2192 155.353 23.4097C155.353 23.6001 155.294 23.7588 155.175 23.8857C155.057 24.0085 154.883 24.0698 154.655 24.0698C154.426 24.0698 154.253 24.0085 154.134 23.8857C154.02 23.7588 153.963 23.6001 153.963 23.4097Z" fill="white"/>
</g>
<defs>
<filter id="filter0_d" x="-6.05383" y="-3.23834" width="193.738" height="56" filterUnits="userSpaceOnUse" color-interpolation-filters="sRGB">
<feFlood flood-opacity="0" result="BackgroundImageFix"/>
<feColorMatrix in="SourceAlpha" type="matrix" values="0 0 0 0 0 0 0 0 0 0 0 0 0 0 0 0 0 0 127 0"/>
<feOffset dy="3"/>
<feGaussianBlur stdDeviation="3.5"/>
<feColorMatrix type="matrix" values="0 0 0 0 0 0 0 0 0 0 0 0 0 0 0 0 0 0 0.35 0"/>
<feBlend mode="normal" in2="BackgroundImageFix" result="effect1_dropShadow"/>
<feBlend mode="normal" in="SourceGraphic" in2="effect1_dropShadow" result="shape"/>
</filter>
<clipPath id="clip0">
<rect width="181" height="43" fill="white"/>
</clipPath>
</defs>
</svg>
