<svg width="16" height="16" viewBox="0 0 16 16" fill="none" xmlns="http://www.w3.org/2000/svg">
<g id="world">
<path id="Shape" fill-rule="evenodd" clip-rule="evenodd" d="M8.33738 0.165901C8.31605 0.163493 8.29475 0.160799 8.27343 0.158103C8.20775 0.149798 8.14196 0.141479 8.0752 0.141479C8.06136 0.141479 8.04768 0.143335 8.03402 0.145186C8.02221 0.146788 8.01042 0.148387 7.99857 0.148778C7.97719 0.148387 7.95592 0.146784 7.93464 0.14518C7.91011 0.14333 7.88555 0.141479 7.86075 0.141479C3.52699 0.141479 0.00109863 3.66765 0.00109863 8.00113C0.00109863 12.3352 3.52699 15.8608 7.86075 15.8608C7.88567 15.8608 7.91035 15.859 7.93496 15.8572C7.95608 15.8557 7.97716 15.8541 7.99829 15.8538C8.01027 15.8542 8.02213 15.8557 8.03398 15.8572C8.04768 15.859 8.06136 15.8608 8.0752 15.8608C8.14546 15.8608 8.21464 15.8519 8.28375 15.8431L8.3151 15.8391L8.33738 15.8364C12.4491 15.5882 15.7204 12.1743 15.7204 8.00113C15.7204 3.82794 12.4491 0.414322 8.33738 0.165901ZM5.50791 1.54387C4.71184 2.46288 4.0651 3.78246 3.71001 5.34092C2.60573 5.22106 1.93934 5.08155 1.67071 5.01699C2.45109 3.40556 3.82691 2.16028 5.50791 1.54387ZM1.29878 5.93236C1.09247 6.58527 0.980186 7.28029 0.980186 8.00113C0.981349 8.84796 1.13993 9.6872 1.44784 10.4761C1.7625 10.4 2.4637 10.2543 3.60194 10.1308C3.48124 9.4546 3.41022 8.74302 3.41022 8.00113C3.41083 7.43445 3.45088 6.86849 3.53008 6.30737C2.2032 6.16001 1.48629 5.98288 1.29878 5.93236ZM1.87562 11.3833C2.23155 11.3075 2.86931 11.1927 3.81191 11.0942C4.18271 12.4663 4.78594 13.6258 5.50847 14.459C3.97124 13.8965 2.68363 12.8066 1.87506 11.3833H1.87562ZM4.70762 11.0103C5.21598 12.9791 6.45612 14.4396 7.29822 14.7921V10.9072C6.45612 10.9173 5.43857 10.9561 4.70762 11.0103ZM7.29822 9.92871C6.45612 9.93937 5.31001 9.9826 4.52854 10.0432C4.42103 9.39481 4.39043 8.70878 4.39043 8.00113C4.39043 7.45095 4.4011 6.91537 4.46762 6.39804C5.26117 6.46092 6.45612 6.50611 7.29822 6.51734V9.92843V9.92871ZM4.60236 5.42794C5.3552 5.48548 6.45612 5.52815 7.29822 5.53853V5.53825V1.21039C6.45612 1.58878 5.07254 3.23987 4.60236 5.42794ZM14.0255 4.96309C13.872 5.01025 13.2499 5.18373 12.0196 5.32941C11.742 3.85292 11.241 2.59481 10.5875 1.68646C12.0856 2.33573 13.3038 3.50457 14.0255 4.96281V4.96309ZM11.1121 5.42653C10.6509 3.21123 9.26313 1.54527 8.42103 1.1958V5.53881C9.26313 5.52843 10.3713 5.48548 11.1121 5.42653ZM8.42103 6.51734C9.26313 6.50639 10.4435 6.46008 11.2272 6.39495C11.2918 6.91313 11.308 7.44955 11.308 8.00113C11.308 8.70962 11.2828 9.39678 11.1784 10.046C10.4067 9.98373 9.26313 9.93881 8.42103 9.92871V6.51734ZM8.42103 10.9072V14.8067V14.807C9.26313 14.4808 10.51 13.0077 11.0097 11.0125C10.2883 10.9569 9.26313 10.9173 8.42103 10.9072ZM10.5875 14.3164C11.1764 13.4978 11.6454 12.3992 11.9349 11.1088C12.9027 11.2202 13.5124 11.3499 13.8198 11.4274C13.0796 12.7118 11.9466 13.7245 10.5875 14.3164ZM12.1678 6.29671C12.3155 7.57569 12.2957 8.86847 12.1089 10.1423L12.1092 10.142C13.3038 10.2824 13.9834 10.4514 14.2537 10.5303C14.5653 9.74653 14.7422 8.8946 14.7422 8.00113C14.7418 7.11797 14.5702 6.24327 14.2369 5.42541L14.3949 5.87173C14.3506 5.88744 13.6808 6.11509 12.1678 6.29671Z" fill="white"/>
</g>
</svg>
