<svg class="svg-icon" style="width: 1em; height: 1em;vertical-align: middle;fill: currentColor;overflow: hidden;" viewBox="0 0 1024 1024" version="1.1" xmlns="http://www.w3.org/2000/svg"><path d="M896 330.666667H430.933333c-12.8 0-21.333333-8.533333-21.333333-21.333334V211.2c0-12.8 8.533333-21.333333 21.333333-21.333333H896c12.8 0 21.333333 8.533333 21.333333 21.333333v98.133333c0 12.8-8.533333 21.333333-21.333333 21.333334z m-443.733333-42.666667H874.666667v-55.466667H452.266667v55.466667zM896 573.866667H430.933333c-12.8 0-21.333333-8.533333-21.333333-21.333334v-98.133333c0-12.8 8.533333-21.333333 21.333333-21.333333H896c12.8 0 21.333333 8.533333 21.333333 21.333333v98.133333c0 12.8-8.533333 21.333333-21.333333 21.333334z m-443.733333-42.666667H874.666667v-55.466667H452.266667v55.466667zM896 832H430.933333c-12.8 0-21.333333-8.533333-21.333333-21.333333v-98.133334c0-12.8 8.533333-21.333333 21.333333-21.333333H896c12.8 0 21.333333 8.533333 21.333333 21.333333V810.666667c0 10.666667-8.533333 21.333333-21.333333 21.333333z m-443.733333-42.666667H874.666667v-55.466666H452.266667V789.333333zM226.133333 347.733333c-51.2 0-93.866667-42.666667-93.866666-93.866666s42.666667-93.866667 93.866666-93.866667 93.866667 42.666667 93.866667 93.866667-42.666667 93.866667-93.866667 93.866666z m0-145.066666c-27.733333 0-51.2 23.466667-51.2 51.2s23.466667 51.2 51.2 51.2 51.2-23.466667 51.2-51.2-23.466667-51.2-51.2-51.2zM226.133333 610.133333c-51.2 0-93.866667-42.666667-93.866666-93.866666s42.666667-93.866667 93.866666-93.866667 93.866667 42.666667 93.866667 93.866667-42.666667 93.866667-93.866667 93.866666z m0-145.066666c-27.733333 0-51.2 23.466667-51.2 51.2s23.466667 51.2 51.2 51.2 51.2-23.466667 51.2-51.2-23.466667-51.2-51.2-51.2zM226.133333 855.466667c-51.2 0-93.866667-42.666667-93.866666-93.866667 0-51.2 42.666667-93.866667 93.866666-93.866667s93.866667 42.666667 93.866667 93.866667c0 51.2-42.666667 93.866667-93.866667 93.866667z m0-145.066667c-27.733333 0-51.2 23.466667-51.2 51.2s23.466667 51.2 51.2 51.2S277.333333 789.333333 277.333333 761.6s-23.466667-51.2-51.2-51.2z"  /></svg>